%TF.GenerationSoftware,KiCad,Pcbnew,9.0.5*%
%TF.CreationDate,2025-11-23T20:09:42-05:00*%
%TF.ProjectId,Silicon Fuzz Face Compact,53696c69-636f-46e2-9046-757a7a204661,rev?*%
%TF.SameCoordinates,Original*%
%TF.FileFunction,Drillmap*%
%TF.FilePolarity,Positive*%
%FSLAX45Y45*%
G04 Gerber Fmt 4.5, Leading zero omitted, Abs format (unit mm)*
G04 Created by KiCad (PCBNEW 9.0.5) date 2025-11-23 20:09:42*
%MOMM*%
%LPD*%
G01*
G04 APERTURE LIST*
%ADD10C,0.050000*%
%ADD11C,0.200000*%
G04 APERTURE END LIST*
D10*
X4870000Y-8050000D02*
X7010000Y-8050000D01*
X7010000Y-9275000D01*
X4870000Y-9275000D01*
X4870000Y-8050000D01*
D11*
X5128277Y-9588984D02*
X5128277Y-9388984D01*
X5128277Y-9388984D02*
X5175896Y-9388984D01*
X5175896Y-9388984D02*
X5204467Y-9398508D01*
X5204467Y-9398508D02*
X5223515Y-9417555D01*
X5223515Y-9417555D02*
X5233039Y-9436603D01*
X5233039Y-9436603D02*
X5242563Y-9474698D01*
X5242563Y-9474698D02*
X5242563Y-9503270D01*
X5242563Y-9503270D02*
X5233039Y-9541365D01*
X5233039Y-9541365D02*
X5223515Y-9560412D01*
X5223515Y-9560412D02*
X5204467Y-9579460D01*
X5204467Y-9579460D02*
X5175896Y-9588984D01*
X5175896Y-9588984D02*
X5128277Y-9588984D01*
X5328277Y-9588984D02*
X5328277Y-9455650D01*
X5328277Y-9493746D02*
X5337801Y-9474698D01*
X5337801Y-9474698D02*
X5347324Y-9465174D01*
X5347324Y-9465174D02*
X5366372Y-9455650D01*
X5366372Y-9455650D02*
X5385420Y-9455650D01*
X5452086Y-9588984D02*
X5452086Y-9455650D01*
X5452086Y-9388984D02*
X5442563Y-9398508D01*
X5442563Y-9398508D02*
X5452086Y-9408031D01*
X5452086Y-9408031D02*
X5461610Y-9398508D01*
X5461610Y-9398508D02*
X5452086Y-9388984D01*
X5452086Y-9388984D02*
X5452086Y-9408031D01*
X5575896Y-9588984D02*
X5556848Y-9579460D01*
X5556848Y-9579460D02*
X5547324Y-9560412D01*
X5547324Y-9560412D02*
X5547324Y-9388984D01*
X5680658Y-9588984D02*
X5661610Y-9579460D01*
X5661610Y-9579460D02*
X5652086Y-9560412D01*
X5652086Y-9560412D02*
X5652086Y-9388984D01*
X5909229Y-9588984D02*
X5909229Y-9388984D01*
X5909229Y-9388984D02*
X5975896Y-9531841D01*
X5975896Y-9531841D02*
X6042562Y-9388984D01*
X6042562Y-9388984D02*
X6042562Y-9588984D01*
X6223515Y-9588984D02*
X6223515Y-9484222D01*
X6223515Y-9484222D02*
X6213991Y-9465174D01*
X6213991Y-9465174D02*
X6194943Y-9455650D01*
X6194943Y-9455650D02*
X6156848Y-9455650D01*
X6156848Y-9455650D02*
X6137801Y-9465174D01*
X6223515Y-9579460D02*
X6204467Y-9588984D01*
X6204467Y-9588984D02*
X6156848Y-9588984D01*
X6156848Y-9588984D02*
X6137801Y-9579460D01*
X6137801Y-9579460D02*
X6128277Y-9560412D01*
X6128277Y-9560412D02*
X6128277Y-9541365D01*
X6128277Y-9541365D02*
X6137801Y-9522317D01*
X6137801Y-9522317D02*
X6156848Y-9512793D01*
X6156848Y-9512793D02*
X6204467Y-9512793D01*
X6204467Y-9512793D02*
X6223515Y-9503270D01*
X6318753Y-9455650D02*
X6318753Y-9655650D01*
X6318753Y-9465174D02*
X6337801Y-9455650D01*
X6337801Y-9455650D02*
X6375896Y-9455650D01*
X6375896Y-9455650D02*
X6394943Y-9465174D01*
X6394943Y-9465174D02*
X6404467Y-9474698D01*
X6404467Y-9474698D02*
X6413991Y-9493746D01*
X6413991Y-9493746D02*
X6413991Y-9550889D01*
X6413991Y-9550889D02*
X6404467Y-9569936D01*
X6404467Y-9569936D02*
X6394943Y-9579460D01*
X6394943Y-9579460D02*
X6375896Y-9588984D01*
X6375896Y-9588984D02*
X6337801Y-9588984D01*
X6337801Y-9588984D02*
X6318753Y-9579460D01*
X6499705Y-9569936D02*
X6509229Y-9579460D01*
X6509229Y-9579460D02*
X6499705Y-9588984D01*
X6499705Y-9588984D02*
X6490182Y-9579460D01*
X6490182Y-9579460D02*
X6499705Y-9569936D01*
X6499705Y-9569936D02*
X6499705Y-9588984D01*
X6499705Y-9465174D02*
X6509229Y-9474698D01*
X6509229Y-9474698D02*
X6499705Y-9484222D01*
X6499705Y-9484222D02*
X6490182Y-9474698D01*
X6490182Y-9474698D02*
X6499705Y-9465174D01*
X6499705Y-9465174D02*
X6499705Y-9484222D01*
M02*
