%TF.GenerationSoftware,KiCad,Pcbnew,9.0.5*%
%TF.CreationDate,2025-11-23T20:09:42-05:00*%
%TF.ProjectId,Silicon Fuzz Face Compact,53696c69-636f-46e2-9046-757a7a204661,rev?*%
%TF.SameCoordinates,Original*%
%TF.FileFunction,Drillmap*%
%TF.FilePolarity,Positive*%
%FSLAX45Y45*%
G04 Gerber Fmt 4.5, Leading zero omitted, Abs format (unit mm)*
G04 Created by KiCad (PCBNEW 9.0.5) date 2025-11-23 20:09:42*
%MOMM*%
%LPD*%
G01*
G04 APERTURE LIST*
%ADD10C,0.050000*%
%ADD11C,0.200000*%
%ADD12C,0.100000*%
G04 APERTURE END LIST*
D10*
X4870000Y-8050000D02*
X7010000Y-8050000D01*
X7010000Y-9275000D01*
X4870000Y-9275000D01*
X4870000Y-8050000D01*
D11*
D12*
X5007500Y-8582500D02*
X5037500Y-8612500D01*
X5037500Y-8582500D02*
X5007500Y-8612500D01*
X5198308Y-9180000D02*
X5228308Y-9210000D01*
X5228308Y-9180000D02*
X5198308Y-9210000D01*
X5367500Y-8730000D02*
X5397500Y-8760000D01*
X5397500Y-8730000D02*
X5367500Y-8760000D01*
X5415000Y-8125000D02*
X5445000Y-8155000D01*
X5445000Y-8125000D02*
X5415000Y-8155000D01*
X5677500Y-9175000D02*
X5707500Y-9205000D01*
X5707500Y-9175000D02*
X5677500Y-9205000D01*
X5770000Y-8735000D02*
X5800000Y-8765000D01*
X5800000Y-8735000D02*
X5770000Y-8765000D01*
X5915000Y-8420100D02*
X5945000Y-8450100D01*
X5945000Y-8420100D02*
X5915000Y-8450100D01*
X5922500Y-8125000D02*
X5952500Y-8155000D01*
X5952500Y-8125000D02*
X5922500Y-8155000D01*
X5927500Y-8552500D02*
X5957500Y-8582500D01*
X5957500Y-8552500D02*
X5927500Y-8582500D01*
X6037500Y-8477500D02*
X6067500Y-8507500D01*
X6067500Y-8477500D02*
X6037500Y-8507500D01*
X6182500Y-9175000D02*
X6212500Y-9205000D01*
X6212500Y-9175000D02*
X6182500Y-9205000D01*
X6430000Y-8127500D02*
X6460000Y-8157500D01*
X6460000Y-8127500D02*
X6430000Y-8157500D01*
X6455000Y-8957500D02*
X6485000Y-8987500D01*
X6485000Y-8957500D02*
X6455000Y-8987500D01*
X6470000Y-8450000D02*
X6500000Y-8480000D01*
X6500000Y-8450000D02*
X6470000Y-8480000D01*
X6660000Y-8312500D02*
X6690000Y-8342500D01*
X6690000Y-8312500D02*
X6660000Y-8342500D01*
X6682500Y-9172500D02*
X6712500Y-9202500D01*
X6712500Y-9172500D02*
X6682500Y-9202500D01*
X6840000Y-8575000D02*
X6870000Y-8605000D01*
X6870000Y-8575000D02*
X6840000Y-8605000D01*
X5058500Y-8715000D02*
G75*
G02*
X4983500Y-8715000I-37500J0D01*
G01*
X4983500Y-8715000D02*
G75*
G02*
X5058500Y-8715000I37500J0D01*
G01*
X5185500Y-8588000D02*
G75*
G02*
X5110500Y-8588000I-37500J0D01*
G01*
X5110500Y-8588000D02*
G75*
G02*
X5185500Y-8588000I37500J0D01*
G01*
X5312500Y-8715000D02*
G75*
G02*
X5237500Y-8715000I-37500J0D01*
G01*
X5237500Y-8715000D02*
G75*
G02*
X5312500Y-8715000I37500J0D01*
G01*
X6642500Y-8715000D02*
G75*
G02*
X6567500Y-8715000I-37500J0D01*
G01*
X6567500Y-8715000D02*
G75*
G02*
X6642500Y-8715000I37500J0D01*
G01*
X6769500Y-8588000D02*
G75*
G02*
X6694500Y-8588000I-37500J0D01*
G01*
X6694500Y-8588000D02*
G75*
G02*
X6769500Y-8588000I37500J0D01*
G01*
X6896500Y-8715000D02*
G75*
G02*
X6821500Y-8715000I-37500J0D01*
G01*
X6821500Y-8715000D02*
G75*
G02*
X6896500Y-8715000I37500J0D01*
G01*
X5050000Y-9045000D02*
X5050000Y-9145000D01*
X5000000Y-9095000D02*
X5100000Y-9095000D01*
X5052000Y-8180000D02*
X5052000Y-8280000D01*
X5002000Y-8230000D02*
X5102000Y-8230000D01*
X5304000Y-9045000D02*
X5304000Y-9145000D01*
X5254000Y-9095000D02*
X5354000Y-9095000D01*
X5306000Y-8180000D02*
X5306000Y-8280000D01*
X5256000Y-8230000D02*
X5356000Y-8230000D01*
X5558000Y-9045000D02*
X5558000Y-9145000D01*
X5508000Y-9095000D02*
X5608000Y-9095000D01*
X5560000Y-8180000D02*
X5560000Y-8280000D01*
X5510000Y-8230000D02*
X5610000Y-8230000D01*
X5812000Y-9045000D02*
X5812000Y-9145000D01*
X5762000Y-9095000D02*
X5862000Y-9095000D01*
X5814000Y-8180000D02*
X5814000Y-8280000D01*
X5764000Y-8230000D02*
X5864000Y-8230000D01*
X6066000Y-9045000D02*
X6066000Y-9145000D01*
X6016000Y-9095000D02*
X6116000Y-9095000D01*
X6068000Y-8180000D02*
X6068000Y-8280000D01*
X6018000Y-8230000D02*
X6118000Y-8230000D01*
X6320000Y-9045000D02*
X6320000Y-9145000D01*
X6270000Y-9095000D02*
X6370000Y-9095000D01*
X6322000Y-8180000D02*
X6322000Y-8280000D01*
X6272000Y-8230000D02*
X6372000Y-8230000D01*
X6574000Y-9045000D02*
X6574000Y-9145000D01*
X6524000Y-9095000D02*
X6624000Y-9095000D01*
X6576000Y-8180000D02*
X6576000Y-8280000D01*
X6526000Y-8230000D02*
X6626000Y-8230000D01*
X6828000Y-9045000D02*
X6828000Y-9145000D01*
X6778000Y-9095000D02*
X6878000Y-9095000D01*
D11*
X5128277Y-9588984D02*
X5128277Y-9388984D01*
X5128277Y-9388984D02*
X5175896Y-9388984D01*
X5175896Y-9388984D02*
X5204467Y-9398508D01*
X5204467Y-9398508D02*
X5223515Y-9417555D01*
X5223515Y-9417555D02*
X5233039Y-9436603D01*
X5233039Y-9436603D02*
X5242563Y-9474698D01*
X5242563Y-9474698D02*
X5242563Y-9503270D01*
X5242563Y-9503270D02*
X5233039Y-9541365D01*
X5233039Y-9541365D02*
X5223515Y-9560412D01*
X5223515Y-9560412D02*
X5204467Y-9579460D01*
X5204467Y-9579460D02*
X5175896Y-9588984D01*
X5175896Y-9588984D02*
X5128277Y-9588984D01*
X5328277Y-9588984D02*
X5328277Y-9455650D01*
X5328277Y-9493746D02*
X5337801Y-9474698D01*
X5337801Y-9474698D02*
X5347324Y-9465174D01*
X5347324Y-9465174D02*
X5366372Y-9455650D01*
X5366372Y-9455650D02*
X5385420Y-9455650D01*
X5452086Y-9588984D02*
X5452086Y-9455650D01*
X5452086Y-9388984D02*
X5442563Y-9398508D01*
X5442563Y-9398508D02*
X5452086Y-9408031D01*
X5452086Y-9408031D02*
X5461610Y-9398508D01*
X5461610Y-9398508D02*
X5452086Y-9388984D01*
X5452086Y-9388984D02*
X5452086Y-9408031D01*
X5575896Y-9588984D02*
X5556848Y-9579460D01*
X5556848Y-9579460D02*
X5547324Y-9560412D01*
X5547324Y-9560412D02*
X5547324Y-9388984D01*
X5680658Y-9588984D02*
X5661610Y-9579460D01*
X5661610Y-9579460D02*
X5652086Y-9560412D01*
X5652086Y-9560412D02*
X5652086Y-9388984D01*
X5909229Y-9588984D02*
X5909229Y-9388984D01*
X5909229Y-9388984D02*
X5975896Y-9531841D01*
X5975896Y-9531841D02*
X6042562Y-9388984D01*
X6042562Y-9388984D02*
X6042562Y-9588984D01*
X6223515Y-9588984D02*
X6223515Y-9484222D01*
X6223515Y-9484222D02*
X6213991Y-9465174D01*
X6213991Y-9465174D02*
X6194943Y-9455650D01*
X6194943Y-9455650D02*
X6156848Y-9455650D01*
X6156848Y-9455650D02*
X6137801Y-9465174D01*
X6223515Y-9579460D02*
X6204467Y-9588984D01*
X6204467Y-9588984D02*
X6156848Y-9588984D01*
X6156848Y-9588984D02*
X6137801Y-9579460D01*
X6137801Y-9579460D02*
X6128277Y-9560412D01*
X6128277Y-9560412D02*
X6128277Y-9541365D01*
X6128277Y-9541365D02*
X6137801Y-9522317D01*
X6137801Y-9522317D02*
X6156848Y-9512793D01*
X6156848Y-9512793D02*
X6204467Y-9512793D01*
X6204467Y-9512793D02*
X6223515Y-9503270D01*
X6318753Y-9455650D02*
X6318753Y-9655650D01*
X6318753Y-9465174D02*
X6337801Y-9455650D01*
X6337801Y-9455650D02*
X6375896Y-9455650D01*
X6375896Y-9455650D02*
X6394943Y-9465174D01*
X6394943Y-9465174D02*
X6404467Y-9474698D01*
X6404467Y-9474698D02*
X6413991Y-9493746D01*
X6413991Y-9493746D02*
X6413991Y-9550889D01*
X6413991Y-9550889D02*
X6404467Y-9569936D01*
X6404467Y-9569936D02*
X6394943Y-9579460D01*
X6394943Y-9579460D02*
X6375896Y-9588984D01*
X6375896Y-9588984D02*
X6337801Y-9588984D01*
X6337801Y-9588984D02*
X6318753Y-9579460D01*
X6499705Y-9569936D02*
X6509229Y-9579460D01*
X6509229Y-9579460D02*
X6499705Y-9588984D01*
X6499705Y-9588984D02*
X6490182Y-9579460D01*
X6490182Y-9579460D02*
X6499705Y-9569936D01*
X6499705Y-9569936D02*
X6499705Y-9588984D01*
X6499705Y-9465174D02*
X6509229Y-9474698D01*
X6509229Y-9474698D02*
X6499705Y-9484222D01*
X6499705Y-9484222D02*
X6490182Y-9474698D01*
X6490182Y-9474698D02*
X6499705Y-9465174D01*
X6499705Y-9465174D02*
X6499705Y-9484222D01*
D12*
X4837500Y-9902500D02*
X4867500Y-9932500D01*
X4867500Y-9902500D02*
X4837500Y-9932500D01*
D11*
X5166372Y-9808984D02*
X5185420Y-9808984D01*
X5185420Y-9808984D02*
X5204467Y-9818508D01*
X5204467Y-9818508D02*
X5213991Y-9828031D01*
X5213991Y-9828031D02*
X5223515Y-9847079D01*
X5223515Y-9847079D02*
X5233039Y-9885174D01*
X5233039Y-9885174D02*
X5233039Y-9932793D01*
X5233039Y-9932793D02*
X5223515Y-9970889D01*
X5223515Y-9970889D02*
X5213991Y-9989936D01*
X5213991Y-9989936D02*
X5204467Y-9999460D01*
X5204467Y-9999460D02*
X5185420Y-10008984D01*
X5185420Y-10008984D02*
X5166372Y-10008984D01*
X5166372Y-10008984D02*
X5147324Y-9999460D01*
X5147324Y-9999460D02*
X5137801Y-9989936D01*
X5137801Y-9989936D02*
X5128277Y-9970889D01*
X5128277Y-9970889D02*
X5118753Y-9932793D01*
X5118753Y-9932793D02*
X5118753Y-9885174D01*
X5118753Y-9885174D02*
X5128277Y-9847079D01*
X5128277Y-9847079D02*
X5137801Y-9828031D01*
X5137801Y-9828031D02*
X5147324Y-9818508D01*
X5147324Y-9818508D02*
X5166372Y-9808984D01*
X5318753Y-9989936D02*
X5328277Y-9999460D01*
X5328277Y-9999460D02*
X5318753Y-10008984D01*
X5318753Y-10008984D02*
X5309229Y-9999460D01*
X5309229Y-9999460D02*
X5318753Y-9989936D01*
X5318753Y-9989936D02*
X5318753Y-10008984D01*
X5394944Y-9808984D02*
X5518753Y-9808984D01*
X5518753Y-9808984D02*
X5452086Y-9885174D01*
X5452086Y-9885174D02*
X5480658Y-9885174D01*
X5480658Y-9885174D02*
X5499705Y-9894698D01*
X5499705Y-9894698D02*
X5509229Y-9904222D01*
X5509229Y-9904222D02*
X5518753Y-9923270D01*
X5518753Y-9923270D02*
X5518753Y-9970889D01*
X5518753Y-9970889D02*
X5509229Y-9989936D01*
X5509229Y-9989936D02*
X5499705Y-9999460D01*
X5499705Y-9999460D02*
X5480658Y-10008984D01*
X5480658Y-10008984D02*
X5423515Y-10008984D01*
X5423515Y-10008984D02*
X5404467Y-9999460D01*
X5404467Y-9999460D02*
X5394944Y-9989936D01*
X5642562Y-9808984D02*
X5661610Y-9808984D01*
X5661610Y-9808984D02*
X5680658Y-9818508D01*
X5680658Y-9818508D02*
X5690182Y-9828031D01*
X5690182Y-9828031D02*
X5699705Y-9847079D01*
X5699705Y-9847079D02*
X5709229Y-9885174D01*
X5709229Y-9885174D02*
X5709229Y-9932793D01*
X5709229Y-9932793D02*
X5699705Y-9970889D01*
X5699705Y-9970889D02*
X5690182Y-9989936D01*
X5690182Y-9989936D02*
X5680658Y-9999460D01*
X5680658Y-9999460D02*
X5661610Y-10008984D01*
X5661610Y-10008984D02*
X5642562Y-10008984D01*
X5642562Y-10008984D02*
X5623515Y-9999460D01*
X5623515Y-9999460D02*
X5613991Y-9989936D01*
X5613991Y-9989936D02*
X5604467Y-9970889D01*
X5604467Y-9970889D02*
X5594943Y-9932793D01*
X5594943Y-9932793D02*
X5594943Y-9885174D01*
X5594943Y-9885174D02*
X5604467Y-9847079D01*
X5604467Y-9847079D02*
X5613991Y-9828031D01*
X5613991Y-9828031D02*
X5623515Y-9818508D01*
X5623515Y-9818508D02*
X5642562Y-9808984D01*
X5833039Y-9808984D02*
X5852086Y-9808984D01*
X5852086Y-9808984D02*
X5871134Y-9818508D01*
X5871134Y-9818508D02*
X5880658Y-9828031D01*
X5880658Y-9828031D02*
X5890182Y-9847079D01*
X5890182Y-9847079D02*
X5899705Y-9885174D01*
X5899705Y-9885174D02*
X5899705Y-9932793D01*
X5899705Y-9932793D02*
X5890182Y-9970889D01*
X5890182Y-9970889D02*
X5880658Y-9989936D01*
X5880658Y-9989936D02*
X5871134Y-9999460D01*
X5871134Y-9999460D02*
X5852086Y-10008984D01*
X5852086Y-10008984D02*
X5833039Y-10008984D01*
X5833039Y-10008984D02*
X5813991Y-9999460D01*
X5813991Y-9999460D02*
X5804467Y-9989936D01*
X5804467Y-9989936D02*
X5794943Y-9970889D01*
X5794943Y-9970889D02*
X5785420Y-9932793D01*
X5785420Y-9932793D02*
X5785420Y-9885174D01*
X5785420Y-9885174D02*
X5794943Y-9847079D01*
X5794943Y-9847079D02*
X5804467Y-9828031D01*
X5804467Y-9828031D02*
X5813991Y-9818508D01*
X5813991Y-9818508D02*
X5833039Y-9808984D01*
X5985420Y-10008984D02*
X5985420Y-9875650D01*
X5985420Y-9894698D02*
X5994943Y-9885174D01*
X5994943Y-9885174D02*
X6013991Y-9875650D01*
X6013991Y-9875650D02*
X6042563Y-9875650D01*
X6042563Y-9875650D02*
X6061610Y-9885174D01*
X6061610Y-9885174D02*
X6071134Y-9904222D01*
X6071134Y-9904222D02*
X6071134Y-10008984D01*
X6071134Y-9904222D02*
X6080658Y-9885174D01*
X6080658Y-9885174D02*
X6099705Y-9875650D01*
X6099705Y-9875650D02*
X6128277Y-9875650D01*
X6128277Y-9875650D02*
X6147324Y-9885174D01*
X6147324Y-9885174D02*
X6156848Y-9904222D01*
X6156848Y-9904222D02*
X6156848Y-10008984D01*
X6252086Y-10008984D02*
X6252086Y-9875650D01*
X6252086Y-9894698D02*
X6261610Y-9885174D01*
X6261610Y-9885174D02*
X6280658Y-9875650D01*
X6280658Y-9875650D02*
X6309229Y-9875650D01*
X6309229Y-9875650D02*
X6328277Y-9885174D01*
X6328277Y-9885174D02*
X6337801Y-9904222D01*
X6337801Y-9904222D02*
X6337801Y-10008984D01*
X6337801Y-9904222D02*
X6347324Y-9885174D01*
X6347324Y-9885174D02*
X6366372Y-9875650D01*
X6366372Y-9875650D02*
X6394943Y-9875650D01*
X6394943Y-9875650D02*
X6413991Y-9885174D01*
X6413991Y-9885174D02*
X6423515Y-9904222D01*
X6423515Y-9904222D02*
X6423515Y-10008984D01*
X6813991Y-9799460D02*
X6642563Y-10056603D01*
X7071134Y-9808984D02*
X7090182Y-9808984D01*
X7090182Y-9808984D02*
X7109229Y-9818508D01*
X7109229Y-9818508D02*
X7118753Y-9828031D01*
X7118753Y-9828031D02*
X7128277Y-9847079D01*
X7128277Y-9847079D02*
X7137801Y-9885174D01*
X7137801Y-9885174D02*
X7137801Y-9932793D01*
X7137801Y-9932793D02*
X7128277Y-9970889D01*
X7128277Y-9970889D02*
X7118753Y-9989936D01*
X7118753Y-9989936D02*
X7109229Y-9999460D01*
X7109229Y-9999460D02*
X7090182Y-10008984D01*
X7090182Y-10008984D02*
X7071134Y-10008984D01*
X7071134Y-10008984D02*
X7052086Y-9999460D01*
X7052086Y-9999460D02*
X7042563Y-9989936D01*
X7042563Y-9989936D02*
X7033039Y-9970889D01*
X7033039Y-9970889D02*
X7023515Y-9932793D01*
X7023515Y-9932793D02*
X7023515Y-9885174D01*
X7023515Y-9885174D02*
X7033039Y-9847079D01*
X7033039Y-9847079D02*
X7042563Y-9828031D01*
X7042563Y-9828031D02*
X7052086Y-9818508D01*
X7052086Y-9818508D02*
X7071134Y-9808984D01*
X7223515Y-9989936D02*
X7233039Y-9999460D01*
X7233039Y-9999460D02*
X7223515Y-10008984D01*
X7223515Y-10008984D02*
X7213991Y-9999460D01*
X7213991Y-9999460D02*
X7223515Y-9989936D01*
X7223515Y-9989936D02*
X7223515Y-10008984D01*
X7356848Y-9808984D02*
X7375896Y-9808984D01*
X7375896Y-9808984D02*
X7394944Y-9818508D01*
X7394944Y-9818508D02*
X7404467Y-9828031D01*
X7404467Y-9828031D02*
X7413991Y-9847079D01*
X7413991Y-9847079D02*
X7423515Y-9885174D01*
X7423515Y-9885174D02*
X7423515Y-9932793D01*
X7423515Y-9932793D02*
X7413991Y-9970889D01*
X7413991Y-9970889D02*
X7404467Y-9989936D01*
X7404467Y-9989936D02*
X7394944Y-9999460D01*
X7394944Y-9999460D02*
X7375896Y-10008984D01*
X7375896Y-10008984D02*
X7356848Y-10008984D01*
X7356848Y-10008984D02*
X7337801Y-9999460D01*
X7337801Y-9999460D02*
X7328277Y-9989936D01*
X7328277Y-9989936D02*
X7318753Y-9970889D01*
X7318753Y-9970889D02*
X7309229Y-9932793D01*
X7309229Y-9932793D02*
X7309229Y-9885174D01*
X7309229Y-9885174D02*
X7318753Y-9847079D01*
X7318753Y-9847079D02*
X7328277Y-9828031D01*
X7328277Y-9828031D02*
X7337801Y-9818508D01*
X7337801Y-9818508D02*
X7356848Y-9808984D01*
X7613991Y-10008984D02*
X7499706Y-10008984D01*
X7556848Y-10008984D02*
X7556848Y-9808984D01*
X7556848Y-9808984D02*
X7537801Y-9837555D01*
X7537801Y-9837555D02*
X7518753Y-9856603D01*
X7518753Y-9856603D02*
X7499706Y-9866127D01*
X7804467Y-10008984D02*
X7690182Y-10008984D01*
X7747325Y-10008984D02*
X7747325Y-9808984D01*
X7747325Y-9808984D02*
X7728277Y-9837555D01*
X7728277Y-9837555D02*
X7709229Y-9856603D01*
X7709229Y-9856603D02*
X7690182Y-9866127D01*
X7918753Y-9894698D02*
X7899706Y-9885174D01*
X7899706Y-9885174D02*
X7890182Y-9875650D01*
X7890182Y-9875650D02*
X7880658Y-9856603D01*
X7880658Y-9856603D02*
X7880658Y-9847079D01*
X7880658Y-9847079D02*
X7890182Y-9828031D01*
X7890182Y-9828031D02*
X7899706Y-9818508D01*
X7899706Y-9818508D02*
X7918753Y-9808984D01*
X7918753Y-9808984D02*
X7956848Y-9808984D01*
X7956848Y-9808984D02*
X7975896Y-9818508D01*
X7975896Y-9818508D02*
X7985420Y-9828031D01*
X7985420Y-9828031D02*
X7994944Y-9847079D01*
X7994944Y-9847079D02*
X7994944Y-9856603D01*
X7994944Y-9856603D02*
X7985420Y-9875650D01*
X7985420Y-9875650D02*
X7975896Y-9885174D01*
X7975896Y-9885174D02*
X7956848Y-9894698D01*
X7956848Y-9894698D02*
X7918753Y-9894698D01*
X7918753Y-9894698D02*
X7899706Y-9904222D01*
X7899706Y-9904222D02*
X7890182Y-9913746D01*
X7890182Y-9913746D02*
X7880658Y-9932793D01*
X7880658Y-9932793D02*
X7880658Y-9970889D01*
X7880658Y-9970889D02*
X7890182Y-9989936D01*
X7890182Y-9989936D02*
X7899706Y-9999460D01*
X7899706Y-9999460D02*
X7918753Y-10008984D01*
X7918753Y-10008984D02*
X7956848Y-10008984D01*
X7956848Y-10008984D02*
X7975896Y-9999460D01*
X7975896Y-9999460D02*
X7985420Y-9989936D01*
X7985420Y-9989936D02*
X7994944Y-9970889D01*
X7994944Y-9970889D02*
X7994944Y-9932793D01*
X7994944Y-9932793D02*
X7985420Y-9913746D01*
X7985420Y-9913746D02*
X7975896Y-9904222D01*
X7975896Y-9904222D02*
X7956848Y-9894698D01*
X8071134Y-9808984D02*
X8071134Y-9847079D01*
X8147325Y-9808984D02*
X8147325Y-9847079D01*
X8442563Y-10085174D02*
X8433039Y-10075650D01*
X8433039Y-10075650D02*
X8413991Y-10047079D01*
X8413991Y-10047079D02*
X8404468Y-10028031D01*
X8404468Y-10028031D02*
X8394944Y-9999460D01*
X8394944Y-9999460D02*
X8385420Y-9951841D01*
X8385420Y-9951841D02*
X8385420Y-9913746D01*
X8385420Y-9913746D02*
X8394944Y-9866127D01*
X8394944Y-9866127D02*
X8404468Y-9837555D01*
X8404468Y-9837555D02*
X8413991Y-9818508D01*
X8413991Y-9818508D02*
X8433039Y-9789936D01*
X8433039Y-9789936D02*
X8442563Y-9780412D01*
X8623515Y-10008984D02*
X8509230Y-10008984D01*
X8566372Y-10008984D02*
X8566372Y-9808984D01*
X8566372Y-9808984D02*
X8547325Y-9837555D01*
X8547325Y-9837555D02*
X8528277Y-9856603D01*
X8528277Y-9856603D02*
X8509230Y-9866127D01*
X8690182Y-9808984D02*
X8823515Y-9808984D01*
X8823515Y-9808984D02*
X8737801Y-10008984D01*
X9052087Y-10008984D02*
X9052087Y-9808984D01*
X9137801Y-10008984D02*
X9137801Y-9904222D01*
X9137801Y-9904222D02*
X9128277Y-9885174D01*
X9128277Y-9885174D02*
X9109230Y-9875650D01*
X9109230Y-9875650D02*
X9080658Y-9875650D01*
X9080658Y-9875650D02*
X9061611Y-9885174D01*
X9061611Y-9885174D02*
X9052087Y-9894698D01*
X9261611Y-10008984D02*
X9242563Y-9999460D01*
X9242563Y-9999460D02*
X9233039Y-9989936D01*
X9233039Y-9989936D02*
X9223515Y-9970889D01*
X9223515Y-9970889D02*
X9223515Y-9913746D01*
X9223515Y-9913746D02*
X9233039Y-9894698D01*
X9233039Y-9894698D02*
X9242563Y-9885174D01*
X9242563Y-9885174D02*
X9261611Y-9875650D01*
X9261611Y-9875650D02*
X9290182Y-9875650D01*
X9290182Y-9875650D02*
X9309230Y-9885174D01*
X9309230Y-9885174D02*
X9318753Y-9894698D01*
X9318753Y-9894698D02*
X9328277Y-9913746D01*
X9328277Y-9913746D02*
X9328277Y-9970889D01*
X9328277Y-9970889D02*
X9318753Y-9989936D01*
X9318753Y-9989936D02*
X9309230Y-9999460D01*
X9309230Y-9999460D02*
X9290182Y-10008984D01*
X9290182Y-10008984D02*
X9261611Y-10008984D01*
X9442563Y-10008984D02*
X9423515Y-9999460D01*
X9423515Y-9999460D02*
X9413992Y-9980412D01*
X9413992Y-9980412D02*
X9413992Y-9808984D01*
X9594944Y-9999460D02*
X9575896Y-10008984D01*
X9575896Y-10008984D02*
X9537801Y-10008984D01*
X9537801Y-10008984D02*
X9518753Y-9999460D01*
X9518753Y-9999460D02*
X9509230Y-9980412D01*
X9509230Y-9980412D02*
X9509230Y-9904222D01*
X9509230Y-9904222D02*
X9518753Y-9885174D01*
X9518753Y-9885174D02*
X9537801Y-9875650D01*
X9537801Y-9875650D02*
X9575896Y-9875650D01*
X9575896Y-9875650D02*
X9594944Y-9885174D01*
X9594944Y-9885174D02*
X9604468Y-9904222D01*
X9604468Y-9904222D02*
X9604468Y-9923270D01*
X9604468Y-9923270D02*
X9509230Y-9942317D01*
X9680658Y-9999460D02*
X9699706Y-10008984D01*
X9699706Y-10008984D02*
X9737801Y-10008984D01*
X9737801Y-10008984D02*
X9756849Y-9999460D01*
X9756849Y-9999460D02*
X9766373Y-9980412D01*
X9766373Y-9980412D02*
X9766373Y-9970889D01*
X9766373Y-9970889D02*
X9756849Y-9951841D01*
X9756849Y-9951841D02*
X9737801Y-9942317D01*
X9737801Y-9942317D02*
X9709230Y-9942317D01*
X9709230Y-9942317D02*
X9690182Y-9932793D01*
X9690182Y-9932793D02*
X9680658Y-9913746D01*
X9680658Y-9913746D02*
X9680658Y-9904222D01*
X9680658Y-9904222D02*
X9690182Y-9885174D01*
X9690182Y-9885174D02*
X9709230Y-9875650D01*
X9709230Y-9875650D02*
X9737801Y-9875650D01*
X9737801Y-9875650D02*
X9756849Y-9885174D01*
X9833039Y-10085174D02*
X9842563Y-10075650D01*
X9842563Y-10075650D02*
X9861611Y-10047079D01*
X9861611Y-10047079D02*
X9871134Y-10028031D01*
X9871134Y-10028031D02*
X9880658Y-9999460D01*
X9880658Y-9999460D02*
X9890182Y-9951841D01*
X9890182Y-9951841D02*
X9890182Y-9913746D01*
X9890182Y-9913746D02*
X9880658Y-9866127D01*
X9880658Y-9866127D02*
X9871134Y-9837555D01*
X9871134Y-9837555D02*
X9861611Y-9818508D01*
X9861611Y-9818508D02*
X9842563Y-9789936D01*
X9842563Y-9789936D02*
X9833039Y-9780412D01*
D12*
X4867500Y-10181500D02*
G75*
G02*
X4792500Y-10181500I-37500J0D01*
G01*
X4792500Y-10181500D02*
G75*
G02*
X4867500Y-10181500I37500J0D01*
G01*
D11*
X5166372Y-10072984D02*
X5185420Y-10072984D01*
X5185420Y-10072984D02*
X5204467Y-10082508D01*
X5204467Y-10082508D02*
X5213991Y-10092031D01*
X5213991Y-10092031D02*
X5223515Y-10111079D01*
X5223515Y-10111079D02*
X5233039Y-10149174D01*
X5233039Y-10149174D02*
X5233039Y-10196793D01*
X5233039Y-10196793D02*
X5223515Y-10234889D01*
X5223515Y-10234889D02*
X5213991Y-10253936D01*
X5213991Y-10253936D02*
X5204467Y-10263460D01*
X5204467Y-10263460D02*
X5185420Y-10272984D01*
X5185420Y-10272984D02*
X5166372Y-10272984D01*
X5166372Y-10272984D02*
X5147324Y-10263460D01*
X5147324Y-10263460D02*
X5137801Y-10253936D01*
X5137801Y-10253936D02*
X5128277Y-10234889D01*
X5128277Y-10234889D02*
X5118753Y-10196793D01*
X5118753Y-10196793D02*
X5118753Y-10149174D01*
X5118753Y-10149174D02*
X5128277Y-10111079D01*
X5128277Y-10111079D02*
X5137801Y-10092031D01*
X5137801Y-10092031D02*
X5147324Y-10082508D01*
X5147324Y-10082508D02*
X5166372Y-10072984D01*
X5318753Y-10253936D02*
X5328277Y-10263460D01*
X5328277Y-10263460D02*
X5318753Y-10272984D01*
X5318753Y-10272984D02*
X5309229Y-10263460D01*
X5309229Y-10263460D02*
X5318753Y-10253936D01*
X5318753Y-10253936D02*
X5318753Y-10272984D01*
X5394944Y-10072984D02*
X5528277Y-10072984D01*
X5528277Y-10072984D02*
X5442563Y-10272984D01*
X5699705Y-10072984D02*
X5604467Y-10072984D01*
X5604467Y-10072984D02*
X5594943Y-10168222D01*
X5594943Y-10168222D02*
X5604467Y-10158698D01*
X5604467Y-10158698D02*
X5623515Y-10149174D01*
X5623515Y-10149174D02*
X5671134Y-10149174D01*
X5671134Y-10149174D02*
X5690182Y-10158698D01*
X5690182Y-10158698D02*
X5699705Y-10168222D01*
X5699705Y-10168222D02*
X5709229Y-10187270D01*
X5709229Y-10187270D02*
X5709229Y-10234889D01*
X5709229Y-10234889D02*
X5699705Y-10253936D01*
X5699705Y-10253936D02*
X5690182Y-10263460D01*
X5690182Y-10263460D02*
X5671134Y-10272984D01*
X5671134Y-10272984D02*
X5623515Y-10272984D01*
X5623515Y-10272984D02*
X5604467Y-10263460D01*
X5604467Y-10263460D02*
X5594943Y-10253936D01*
X5833039Y-10072984D02*
X5852086Y-10072984D01*
X5852086Y-10072984D02*
X5871134Y-10082508D01*
X5871134Y-10082508D02*
X5880658Y-10092031D01*
X5880658Y-10092031D02*
X5890182Y-10111079D01*
X5890182Y-10111079D02*
X5899705Y-10149174D01*
X5899705Y-10149174D02*
X5899705Y-10196793D01*
X5899705Y-10196793D02*
X5890182Y-10234889D01*
X5890182Y-10234889D02*
X5880658Y-10253936D01*
X5880658Y-10253936D02*
X5871134Y-10263460D01*
X5871134Y-10263460D02*
X5852086Y-10272984D01*
X5852086Y-10272984D02*
X5833039Y-10272984D01*
X5833039Y-10272984D02*
X5813991Y-10263460D01*
X5813991Y-10263460D02*
X5804467Y-10253936D01*
X5804467Y-10253936D02*
X5794943Y-10234889D01*
X5794943Y-10234889D02*
X5785420Y-10196793D01*
X5785420Y-10196793D02*
X5785420Y-10149174D01*
X5785420Y-10149174D02*
X5794943Y-10111079D01*
X5794943Y-10111079D02*
X5804467Y-10092031D01*
X5804467Y-10092031D02*
X5813991Y-10082508D01*
X5813991Y-10082508D02*
X5833039Y-10072984D01*
X5985420Y-10272984D02*
X5985420Y-10139650D01*
X5985420Y-10158698D02*
X5994943Y-10149174D01*
X5994943Y-10149174D02*
X6013991Y-10139650D01*
X6013991Y-10139650D02*
X6042563Y-10139650D01*
X6042563Y-10139650D02*
X6061610Y-10149174D01*
X6061610Y-10149174D02*
X6071134Y-10168222D01*
X6071134Y-10168222D02*
X6071134Y-10272984D01*
X6071134Y-10168222D02*
X6080658Y-10149174D01*
X6080658Y-10149174D02*
X6099705Y-10139650D01*
X6099705Y-10139650D02*
X6128277Y-10139650D01*
X6128277Y-10139650D02*
X6147324Y-10149174D01*
X6147324Y-10149174D02*
X6156848Y-10168222D01*
X6156848Y-10168222D02*
X6156848Y-10272984D01*
X6252086Y-10272984D02*
X6252086Y-10139650D01*
X6252086Y-10158698D02*
X6261610Y-10149174D01*
X6261610Y-10149174D02*
X6280658Y-10139650D01*
X6280658Y-10139650D02*
X6309229Y-10139650D01*
X6309229Y-10139650D02*
X6328277Y-10149174D01*
X6328277Y-10149174D02*
X6337801Y-10168222D01*
X6337801Y-10168222D02*
X6337801Y-10272984D01*
X6337801Y-10168222D02*
X6347324Y-10149174D01*
X6347324Y-10149174D02*
X6366372Y-10139650D01*
X6366372Y-10139650D02*
X6394943Y-10139650D01*
X6394943Y-10139650D02*
X6413991Y-10149174D01*
X6413991Y-10149174D02*
X6423515Y-10168222D01*
X6423515Y-10168222D02*
X6423515Y-10272984D01*
X6813991Y-10063460D02*
X6642563Y-10320603D01*
X7071134Y-10072984D02*
X7090182Y-10072984D01*
X7090182Y-10072984D02*
X7109229Y-10082508D01*
X7109229Y-10082508D02*
X7118753Y-10092031D01*
X7118753Y-10092031D02*
X7128277Y-10111079D01*
X7128277Y-10111079D02*
X7137801Y-10149174D01*
X7137801Y-10149174D02*
X7137801Y-10196793D01*
X7137801Y-10196793D02*
X7128277Y-10234889D01*
X7128277Y-10234889D02*
X7118753Y-10253936D01*
X7118753Y-10253936D02*
X7109229Y-10263460D01*
X7109229Y-10263460D02*
X7090182Y-10272984D01*
X7090182Y-10272984D02*
X7071134Y-10272984D01*
X7071134Y-10272984D02*
X7052086Y-10263460D01*
X7052086Y-10263460D02*
X7042563Y-10253936D01*
X7042563Y-10253936D02*
X7033039Y-10234889D01*
X7033039Y-10234889D02*
X7023515Y-10196793D01*
X7023515Y-10196793D02*
X7023515Y-10149174D01*
X7023515Y-10149174D02*
X7033039Y-10111079D01*
X7033039Y-10111079D02*
X7042563Y-10092031D01*
X7042563Y-10092031D02*
X7052086Y-10082508D01*
X7052086Y-10082508D02*
X7071134Y-10072984D01*
X7223515Y-10253936D02*
X7233039Y-10263460D01*
X7233039Y-10263460D02*
X7223515Y-10272984D01*
X7223515Y-10272984D02*
X7213991Y-10263460D01*
X7213991Y-10263460D02*
X7223515Y-10253936D01*
X7223515Y-10253936D02*
X7223515Y-10272984D01*
X7356848Y-10072984D02*
X7375896Y-10072984D01*
X7375896Y-10072984D02*
X7394944Y-10082508D01*
X7394944Y-10082508D02*
X7404467Y-10092031D01*
X7404467Y-10092031D02*
X7413991Y-10111079D01*
X7413991Y-10111079D02*
X7423515Y-10149174D01*
X7423515Y-10149174D02*
X7423515Y-10196793D01*
X7423515Y-10196793D02*
X7413991Y-10234889D01*
X7413991Y-10234889D02*
X7404467Y-10253936D01*
X7404467Y-10253936D02*
X7394944Y-10263460D01*
X7394944Y-10263460D02*
X7375896Y-10272984D01*
X7375896Y-10272984D02*
X7356848Y-10272984D01*
X7356848Y-10272984D02*
X7337801Y-10263460D01*
X7337801Y-10263460D02*
X7328277Y-10253936D01*
X7328277Y-10253936D02*
X7318753Y-10234889D01*
X7318753Y-10234889D02*
X7309229Y-10196793D01*
X7309229Y-10196793D02*
X7309229Y-10149174D01*
X7309229Y-10149174D02*
X7318753Y-10111079D01*
X7318753Y-10111079D02*
X7328277Y-10092031D01*
X7328277Y-10092031D02*
X7337801Y-10082508D01*
X7337801Y-10082508D02*
X7356848Y-10072984D01*
X7499706Y-10092031D02*
X7509229Y-10082508D01*
X7509229Y-10082508D02*
X7528277Y-10072984D01*
X7528277Y-10072984D02*
X7575896Y-10072984D01*
X7575896Y-10072984D02*
X7594944Y-10082508D01*
X7594944Y-10082508D02*
X7604467Y-10092031D01*
X7604467Y-10092031D02*
X7613991Y-10111079D01*
X7613991Y-10111079D02*
X7613991Y-10130127D01*
X7613991Y-10130127D02*
X7604467Y-10158698D01*
X7604467Y-10158698D02*
X7490182Y-10272984D01*
X7490182Y-10272984D02*
X7613991Y-10272984D01*
X7709229Y-10272984D02*
X7747325Y-10272984D01*
X7747325Y-10272984D02*
X7766372Y-10263460D01*
X7766372Y-10263460D02*
X7775896Y-10253936D01*
X7775896Y-10253936D02*
X7794944Y-10225365D01*
X7794944Y-10225365D02*
X7804467Y-10187270D01*
X7804467Y-10187270D02*
X7804467Y-10111079D01*
X7804467Y-10111079D02*
X7794944Y-10092031D01*
X7794944Y-10092031D02*
X7785420Y-10082508D01*
X7785420Y-10082508D02*
X7766372Y-10072984D01*
X7766372Y-10072984D02*
X7728277Y-10072984D01*
X7728277Y-10072984D02*
X7709229Y-10082508D01*
X7709229Y-10082508D02*
X7699706Y-10092031D01*
X7699706Y-10092031D02*
X7690182Y-10111079D01*
X7690182Y-10111079D02*
X7690182Y-10158698D01*
X7690182Y-10158698D02*
X7699706Y-10177746D01*
X7699706Y-10177746D02*
X7709229Y-10187270D01*
X7709229Y-10187270D02*
X7728277Y-10196793D01*
X7728277Y-10196793D02*
X7766372Y-10196793D01*
X7766372Y-10196793D02*
X7785420Y-10187270D01*
X7785420Y-10187270D02*
X7794944Y-10177746D01*
X7794944Y-10177746D02*
X7804467Y-10158698D01*
X7985420Y-10072984D02*
X7890182Y-10072984D01*
X7890182Y-10072984D02*
X7880658Y-10168222D01*
X7880658Y-10168222D02*
X7890182Y-10158698D01*
X7890182Y-10158698D02*
X7909229Y-10149174D01*
X7909229Y-10149174D02*
X7956848Y-10149174D01*
X7956848Y-10149174D02*
X7975896Y-10158698D01*
X7975896Y-10158698D02*
X7985420Y-10168222D01*
X7985420Y-10168222D02*
X7994944Y-10187270D01*
X7994944Y-10187270D02*
X7994944Y-10234889D01*
X7994944Y-10234889D02*
X7985420Y-10253936D01*
X7985420Y-10253936D02*
X7975896Y-10263460D01*
X7975896Y-10263460D02*
X7956848Y-10272984D01*
X7956848Y-10272984D02*
X7909229Y-10272984D01*
X7909229Y-10272984D02*
X7890182Y-10263460D01*
X7890182Y-10263460D02*
X7880658Y-10253936D01*
X8071134Y-10072984D02*
X8071134Y-10111079D01*
X8147325Y-10072984D02*
X8147325Y-10111079D01*
X8442563Y-10349174D02*
X8433039Y-10339650D01*
X8433039Y-10339650D02*
X8413991Y-10311079D01*
X8413991Y-10311079D02*
X8404468Y-10292031D01*
X8404468Y-10292031D02*
X8394944Y-10263460D01*
X8394944Y-10263460D02*
X8385420Y-10215841D01*
X8385420Y-10215841D02*
X8385420Y-10177746D01*
X8385420Y-10177746D02*
X8394944Y-10130127D01*
X8394944Y-10130127D02*
X8404468Y-10101555D01*
X8404468Y-10101555D02*
X8413991Y-10082508D01*
X8413991Y-10082508D02*
X8433039Y-10053936D01*
X8433039Y-10053936D02*
X8442563Y-10044412D01*
X8604468Y-10072984D02*
X8566372Y-10072984D01*
X8566372Y-10072984D02*
X8547325Y-10082508D01*
X8547325Y-10082508D02*
X8537801Y-10092031D01*
X8537801Y-10092031D02*
X8518753Y-10120603D01*
X8518753Y-10120603D02*
X8509230Y-10158698D01*
X8509230Y-10158698D02*
X8509230Y-10234889D01*
X8509230Y-10234889D02*
X8518753Y-10253936D01*
X8518753Y-10253936D02*
X8528277Y-10263460D01*
X8528277Y-10263460D02*
X8547325Y-10272984D01*
X8547325Y-10272984D02*
X8585420Y-10272984D01*
X8585420Y-10272984D02*
X8604468Y-10263460D01*
X8604468Y-10263460D02*
X8613991Y-10253936D01*
X8613991Y-10253936D02*
X8623515Y-10234889D01*
X8623515Y-10234889D02*
X8623515Y-10187270D01*
X8623515Y-10187270D02*
X8613991Y-10168222D01*
X8613991Y-10168222D02*
X8604468Y-10158698D01*
X8604468Y-10158698D02*
X8585420Y-10149174D01*
X8585420Y-10149174D02*
X8547325Y-10149174D01*
X8547325Y-10149174D02*
X8528277Y-10158698D01*
X8528277Y-10158698D02*
X8518753Y-10168222D01*
X8518753Y-10168222D02*
X8509230Y-10187270D01*
X8861611Y-10272984D02*
X8861611Y-10072984D01*
X8947325Y-10272984D02*
X8947325Y-10168222D01*
X8947325Y-10168222D02*
X8937801Y-10149174D01*
X8937801Y-10149174D02*
X8918753Y-10139650D01*
X8918753Y-10139650D02*
X8890182Y-10139650D01*
X8890182Y-10139650D02*
X8871134Y-10149174D01*
X8871134Y-10149174D02*
X8861611Y-10158698D01*
X9071134Y-10272984D02*
X9052087Y-10263460D01*
X9052087Y-10263460D02*
X9042563Y-10253936D01*
X9042563Y-10253936D02*
X9033039Y-10234889D01*
X9033039Y-10234889D02*
X9033039Y-10177746D01*
X9033039Y-10177746D02*
X9042563Y-10158698D01*
X9042563Y-10158698D02*
X9052087Y-10149174D01*
X9052087Y-10149174D02*
X9071134Y-10139650D01*
X9071134Y-10139650D02*
X9099706Y-10139650D01*
X9099706Y-10139650D02*
X9118753Y-10149174D01*
X9118753Y-10149174D02*
X9128277Y-10158698D01*
X9128277Y-10158698D02*
X9137801Y-10177746D01*
X9137801Y-10177746D02*
X9137801Y-10234889D01*
X9137801Y-10234889D02*
X9128277Y-10253936D01*
X9128277Y-10253936D02*
X9118753Y-10263460D01*
X9118753Y-10263460D02*
X9099706Y-10272984D01*
X9099706Y-10272984D02*
X9071134Y-10272984D01*
X9252087Y-10272984D02*
X9233039Y-10263460D01*
X9233039Y-10263460D02*
X9223515Y-10244412D01*
X9223515Y-10244412D02*
X9223515Y-10072984D01*
X9404468Y-10263460D02*
X9385420Y-10272984D01*
X9385420Y-10272984D02*
X9347325Y-10272984D01*
X9347325Y-10272984D02*
X9328277Y-10263460D01*
X9328277Y-10263460D02*
X9318753Y-10244412D01*
X9318753Y-10244412D02*
X9318753Y-10168222D01*
X9318753Y-10168222D02*
X9328277Y-10149174D01*
X9328277Y-10149174D02*
X9347325Y-10139650D01*
X9347325Y-10139650D02*
X9385420Y-10139650D01*
X9385420Y-10139650D02*
X9404468Y-10149174D01*
X9404468Y-10149174D02*
X9413992Y-10168222D01*
X9413992Y-10168222D02*
X9413992Y-10187270D01*
X9413992Y-10187270D02*
X9318753Y-10206317D01*
X9490182Y-10263460D02*
X9509230Y-10272984D01*
X9509230Y-10272984D02*
X9547325Y-10272984D01*
X9547325Y-10272984D02*
X9566373Y-10263460D01*
X9566373Y-10263460D02*
X9575896Y-10244412D01*
X9575896Y-10244412D02*
X9575896Y-10234889D01*
X9575896Y-10234889D02*
X9566373Y-10215841D01*
X9566373Y-10215841D02*
X9547325Y-10206317D01*
X9547325Y-10206317D02*
X9518753Y-10206317D01*
X9518753Y-10206317D02*
X9499706Y-10196793D01*
X9499706Y-10196793D02*
X9490182Y-10177746D01*
X9490182Y-10177746D02*
X9490182Y-10168222D01*
X9490182Y-10168222D02*
X9499706Y-10149174D01*
X9499706Y-10149174D02*
X9518753Y-10139650D01*
X9518753Y-10139650D02*
X9547325Y-10139650D01*
X9547325Y-10139650D02*
X9566373Y-10149174D01*
X9642563Y-10349174D02*
X9652087Y-10339650D01*
X9652087Y-10339650D02*
X9671134Y-10311079D01*
X9671134Y-10311079D02*
X9680658Y-10292031D01*
X9680658Y-10292031D02*
X9690182Y-10263460D01*
X9690182Y-10263460D02*
X9699706Y-10215841D01*
X9699706Y-10215841D02*
X9699706Y-10177746D01*
X9699706Y-10177746D02*
X9690182Y-10130127D01*
X9690182Y-10130127D02*
X9680658Y-10101555D01*
X9680658Y-10101555D02*
X9671134Y-10082508D01*
X9671134Y-10082508D02*
X9652087Y-10053936D01*
X9652087Y-10053936D02*
X9642563Y-10044412D01*
D12*
X4817500Y-10395500D02*
X4817500Y-10495500D01*
X4767500Y-10445500D02*
X4867500Y-10445500D01*
D11*
X5233039Y-10536984D02*
X5118753Y-10536984D01*
X5175896Y-10536984D02*
X5175896Y-10336984D01*
X5175896Y-10336984D02*
X5156848Y-10365555D01*
X5156848Y-10365555D02*
X5137801Y-10384603D01*
X5137801Y-10384603D02*
X5118753Y-10394127D01*
X5318753Y-10517936D02*
X5328277Y-10527460D01*
X5328277Y-10527460D02*
X5318753Y-10536984D01*
X5318753Y-10536984D02*
X5309229Y-10527460D01*
X5309229Y-10527460D02*
X5318753Y-10517936D01*
X5318753Y-10517936D02*
X5318753Y-10536984D01*
X5452086Y-10336984D02*
X5471134Y-10336984D01*
X5471134Y-10336984D02*
X5490182Y-10346508D01*
X5490182Y-10346508D02*
X5499705Y-10356031D01*
X5499705Y-10356031D02*
X5509229Y-10375079D01*
X5509229Y-10375079D02*
X5518753Y-10413174D01*
X5518753Y-10413174D02*
X5518753Y-10460793D01*
X5518753Y-10460793D02*
X5509229Y-10498889D01*
X5509229Y-10498889D02*
X5499705Y-10517936D01*
X5499705Y-10517936D02*
X5490182Y-10527460D01*
X5490182Y-10527460D02*
X5471134Y-10536984D01*
X5471134Y-10536984D02*
X5452086Y-10536984D01*
X5452086Y-10536984D02*
X5433039Y-10527460D01*
X5433039Y-10527460D02*
X5423515Y-10517936D01*
X5423515Y-10517936D02*
X5413991Y-10498889D01*
X5413991Y-10498889D02*
X5404467Y-10460793D01*
X5404467Y-10460793D02*
X5404467Y-10413174D01*
X5404467Y-10413174D02*
X5413991Y-10375079D01*
X5413991Y-10375079D02*
X5423515Y-10356031D01*
X5423515Y-10356031D02*
X5433039Y-10346508D01*
X5433039Y-10346508D02*
X5452086Y-10336984D01*
X5642562Y-10336984D02*
X5661610Y-10336984D01*
X5661610Y-10336984D02*
X5680658Y-10346508D01*
X5680658Y-10346508D02*
X5690182Y-10356031D01*
X5690182Y-10356031D02*
X5699705Y-10375079D01*
X5699705Y-10375079D02*
X5709229Y-10413174D01*
X5709229Y-10413174D02*
X5709229Y-10460793D01*
X5709229Y-10460793D02*
X5699705Y-10498889D01*
X5699705Y-10498889D02*
X5690182Y-10517936D01*
X5690182Y-10517936D02*
X5680658Y-10527460D01*
X5680658Y-10527460D02*
X5661610Y-10536984D01*
X5661610Y-10536984D02*
X5642562Y-10536984D01*
X5642562Y-10536984D02*
X5623515Y-10527460D01*
X5623515Y-10527460D02*
X5613991Y-10517936D01*
X5613991Y-10517936D02*
X5604467Y-10498889D01*
X5604467Y-10498889D02*
X5594943Y-10460793D01*
X5594943Y-10460793D02*
X5594943Y-10413174D01*
X5594943Y-10413174D02*
X5604467Y-10375079D01*
X5604467Y-10375079D02*
X5613991Y-10356031D01*
X5613991Y-10356031D02*
X5623515Y-10346508D01*
X5623515Y-10346508D02*
X5642562Y-10336984D01*
X5833039Y-10336984D02*
X5852086Y-10336984D01*
X5852086Y-10336984D02*
X5871134Y-10346508D01*
X5871134Y-10346508D02*
X5880658Y-10356031D01*
X5880658Y-10356031D02*
X5890182Y-10375079D01*
X5890182Y-10375079D02*
X5899705Y-10413174D01*
X5899705Y-10413174D02*
X5899705Y-10460793D01*
X5899705Y-10460793D02*
X5890182Y-10498889D01*
X5890182Y-10498889D02*
X5880658Y-10517936D01*
X5880658Y-10517936D02*
X5871134Y-10527460D01*
X5871134Y-10527460D02*
X5852086Y-10536984D01*
X5852086Y-10536984D02*
X5833039Y-10536984D01*
X5833039Y-10536984D02*
X5813991Y-10527460D01*
X5813991Y-10527460D02*
X5804467Y-10517936D01*
X5804467Y-10517936D02*
X5794943Y-10498889D01*
X5794943Y-10498889D02*
X5785420Y-10460793D01*
X5785420Y-10460793D02*
X5785420Y-10413174D01*
X5785420Y-10413174D02*
X5794943Y-10375079D01*
X5794943Y-10375079D02*
X5804467Y-10356031D01*
X5804467Y-10356031D02*
X5813991Y-10346508D01*
X5813991Y-10346508D02*
X5833039Y-10336984D01*
X5985420Y-10536984D02*
X5985420Y-10403650D01*
X5985420Y-10422698D02*
X5994943Y-10413174D01*
X5994943Y-10413174D02*
X6013991Y-10403650D01*
X6013991Y-10403650D02*
X6042563Y-10403650D01*
X6042563Y-10403650D02*
X6061610Y-10413174D01*
X6061610Y-10413174D02*
X6071134Y-10432222D01*
X6071134Y-10432222D02*
X6071134Y-10536984D01*
X6071134Y-10432222D02*
X6080658Y-10413174D01*
X6080658Y-10413174D02*
X6099705Y-10403650D01*
X6099705Y-10403650D02*
X6128277Y-10403650D01*
X6128277Y-10403650D02*
X6147324Y-10413174D01*
X6147324Y-10413174D02*
X6156848Y-10432222D01*
X6156848Y-10432222D02*
X6156848Y-10536984D01*
X6252086Y-10536984D02*
X6252086Y-10403650D01*
X6252086Y-10422698D02*
X6261610Y-10413174D01*
X6261610Y-10413174D02*
X6280658Y-10403650D01*
X6280658Y-10403650D02*
X6309229Y-10403650D01*
X6309229Y-10403650D02*
X6328277Y-10413174D01*
X6328277Y-10413174D02*
X6337801Y-10432222D01*
X6337801Y-10432222D02*
X6337801Y-10536984D01*
X6337801Y-10432222D02*
X6347324Y-10413174D01*
X6347324Y-10413174D02*
X6366372Y-10403650D01*
X6366372Y-10403650D02*
X6394943Y-10403650D01*
X6394943Y-10403650D02*
X6413991Y-10413174D01*
X6413991Y-10413174D02*
X6423515Y-10432222D01*
X6423515Y-10432222D02*
X6423515Y-10536984D01*
X6813991Y-10327460D02*
X6642563Y-10584603D01*
X7071134Y-10336984D02*
X7090182Y-10336984D01*
X7090182Y-10336984D02*
X7109229Y-10346508D01*
X7109229Y-10346508D02*
X7118753Y-10356031D01*
X7118753Y-10356031D02*
X7128277Y-10375079D01*
X7128277Y-10375079D02*
X7137801Y-10413174D01*
X7137801Y-10413174D02*
X7137801Y-10460793D01*
X7137801Y-10460793D02*
X7128277Y-10498889D01*
X7128277Y-10498889D02*
X7118753Y-10517936D01*
X7118753Y-10517936D02*
X7109229Y-10527460D01*
X7109229Y-10527460D02*
X7090182Y-10536984D01*
X7090182Y-10536984D02*
X7071134Y-10536984D01*
X7071134Y-10536984D02*
X7052086Y-10527460D01*
X7052086Y-10527460D02*
X7042563Y-10517936D01*
X7042563Y-10517936D02*
X7033039Y-10498889D01*
X7033039Y-10498889D02*
X7023515Y-10460793D01*
X7023515Y-10460793D02*
X7023515Y-10413174D01*
X7023515Y-10413174D02*
X7033039Y-10375079D01*
X7033039Y-10375079D02*
X7042563Y-10356031D01*
X7042563Y-10356031D02*
X7052086Y-10346508D01*
X7052086Y-10346508D02*
X7071134Y-10336984D01*
X7223515Y-10517936D02*
X7233039Y-10527460D01*
X7233039Y-10527460D02*
X7223515Y-10536984D01*
X7223515Y-10536984D02*
X7213991Y-10527460D01*
X7213991Y-10527460D02*
X7223515Y-10517936D01*
X7223515Y-10517936D02*
X7223515Y-10536984D01*
X7356848Y-10336984D02*
X7375896Y-10336984D01*
X7375896Y-10336984D02*
X7394944Y-10346508D01*
X7394944Y-10346508D02*
X7404467Y-10356031D01*
X7404467Y-10356031D02*
X7413991Y-10375079D01*
X7413991Y-10375079D02*
X7423515Y-10413174D01*
X7423515Y-10413174D02*
X7423515Y-10460793D01*
X7423515Y-10460793D02*
X7413991Y-10498889D01*
X7413991Y-10498889D02*
X7404467Y-10517936D01*
X7404467Y-10517936D02*
X7394944Y-10527460D01*
X7394944Y-10527460D02*
X7375896Y-10536984D01*
X7375896Y-10536984D02*
X7356848Y-10536984D01*
X7356848Y-10536984D02*
X7337801Y-10527460D01*
X7337801Y-10527460D02*
X7328277Y-10517936D01*
X7328277Y-10517936D02*
X7318753Y-10498889D01*
X7318753Y-10498889D02*
X7309229Y-10460793D01*
X7309229Y-10460793D02*
X7309229Y-10413174D01*
X7309229Y-10413174D02*
X7318753Y-10375079D01*
X7318753Y-10375079D02*
X7328277Y-10356031D01*
X7328277Y-10356031D02*
X7337801Y-10346508D01*
X7337801Y-10346508D02*
X7356848Y-10336984D01*
X7490182Y-10336984D02*
X7613991Y-10336984D01*
X7613991Y-10336984D02*
X7547325Y-10413174D01*
X7547325Y-10413174D02*
X7575896Y-10413174D01*
X7575896Y-10413174D02*
X7594944Y-10422698D01*
X7594944Y-10422698D02*
X7604467Y-10432222D01*
X7604467Y-10432222D02*
X7613991Y-10451270D01*
X7613991Y-10451270D02*
X7613991Y-10498889D01*
X7613991Y-10498889D02*
X7604467Y-10517936D01*
X7604467Y-10517936D02*
X7594944Y-10527460D01*
X7594944Y-10527460D02*
X7575896Y-10536984D01*
X7575896Y-10536984D02*
X7518753Y-10536984D01*
X7518753Y-10536984D02*
X7499706Y-10527460D01*
X7499706Y-10527460D02*
X7490182Y-10517936D01*
X7709229Y-10536984D02*
X7747325Y-10536984D01*
X7747325Y-10536984D02*
X7766372Y-10527460D01*
X7766372Y-10527460D02*
X7775896Y-10517936D01*
X7775896Y-10517936D02*
X7794944Y-10489365D01*
X7794944Y-10489365D02*
X7804467Y-10451270D01*
X7804467Y-10451270D02*
X7804467Y-10375079D01*
X7804467Y-10375079D02*
X7794944Y-10356031D01*
X7794944Y-10356031D02*
X7785420Y-10346508D01*
X7785420Y-10346508D02*
X7766372Y-10336984D01*
X7766372Y-10336984D02*
X7728277Y-10336984D01*
X7728277Y-10336984D02*
X7709229Y-10346508D01*
X7709229Y-10346508D02*
X7699706Y-10356031D01*
X7699706Y-10356031D02*
X7690182Y-10375079D01*
X7690182Y-10375079D02*
X7690182Y-10422698D01*
X7690182Y-10422698D02*
X7699706Y-10441746D01*
X7699706Y-10441746D02*
X7709229Y-10451270D01*
X7709229Y-10451270D02*
X7728277Y-10460793D01*
X7728277Y-10460793D02*
X7766372Y-10460793D01*
X7766372Y-10460793D02*
X7785420Y-10451270D01*
X7785420Y-10451270D02*
X7794944Y-10441746D01*
X7794944Y-10441746D02*
X7804467Y-10422698D01*
X7975896Y-10403650D02*
X7975896Y-10536984D01*
X7928277Y-10327460D02*
X7880658Y-10470317D01*
X7880658Y-10470317D02*
X8004467Y-10470317D01*
X8071134Y-10336984D02*
X8071134Y-10375079D01*
X8147325Y-10336984D02*
X8147325Y-10375079D01*
X8442563Y-10613174D02*
X8433039Y-10603650D01*
X8433039Y-10603650D02*
X8413991Y-10575079D01*
X8413991Y-10575079D02*
X8404468Y-10556031D01*
X8404468Y-10556031D02*
X8394944Y-10527460D01*
X8394944Y-10527460D02*
X8385420Y-10479841D01*
X8385420Y-10479841D02*
X8385420Y-10441746D01*
X8385420Y-10441746D02*
X8394944Y-10394127D01*
X8394944Y-10394127D02*
X8404468Y-10365555D01*
X8404468Y-10365555D02*
X8413991Y-10346508D01*
X8413991Y-10346508D02*
X8433039Y-10317936D01*
X8433039Y-10317936D02*
X8442563Y-10308412D01*
X8623515Y-10536984D02*
X8509230Y-10536984D01*
X8566372Y-10536984D02*
X8566372Y-10336984D01*
X8566372Y-10336984D02*
X8547325Y-10365555D01*
X8547325Y-10365555D02*
X8528277Y-10384603D01*
X8528277Y-10384603D02*
X8509230Y-10394127D01*
X8804468Y-10336984D02*
X8709230Y-10336984D01*
X8709230Y-10336984D02*
X8699706Y-10432222D01*
X8699706Y-10432222D02*
X8709230Y-10422698D01*
X8709230Y-10422698D02*
X8728277Y-10413174D01*
X8728277Y-10413174D02*
X8775896Y-10413174D01*
X8775896Y-10413174D02*
X8794944Y-10422698D01*
X8794944Y-10422698D02*
X8804468Y-10432222D01*
X8804468Y-10432222D02*
X8813991Y-10451270D01*
X8813991Y-10451270D02*
X8813991Y-10498889D01*
X8813991Y-10498889D02*
X8804468Y-10517936D01*
X8804468Y-10517936D02*
X8794944Y-10527460D01*
X8794944Y-10527460D02*
X8775896Y-10536984D01*
X8775896Y-10536984D02*
X8728277Y-10536984D01*
X8728277Y-10536984D02*
X8709230Y-10527460D01*
X8709230Y-10527460D02*
X8699706Y-10517936D01*
X9052087Y-10536984D02*
X9052087Y-10336984D01*
X9137801Y-10536984D02*
X9137801Y-10432222D01*
X9137801Y-10432222D02*
X9128277Y-10413174D01*
X9128277Y-10413174D02*
X9109230Y-10403650D01*
X9109230Y-10403650D02*
X9080658Y-10403650D01*
X9080658Y-10403650D02*
X9061611Y-10413174D01*
X9061611Y-10413174D02*
X9052087Y-10422698D01*
X9261611Y-10536984D02*
X9242563Y-10527460D01*
X9242563Y-10527460D02*
X9233039Y-10517936D01*
X9233039Y-10517936D02*
X9223515Y-10498889D01*
X9223515Y-10498889D02*
X9223515Y-10441746D01*
X9223515Y-10441746D02*
X9233039Y-10422698D01*
X9233039Y-10422698D02*
X9242563Y-10413174D01*
X9242563Y-10413174D02*
X9261611Y-10403650D01*
X9261611Y-10403650D02*
X9290182Y-10403650D01*
X9290182Y-10403650D02*
X9309230Y-10413174D01*
X9309230Y-10413174D02*
X9318753Y-10422698D01*
X9318753Y-10422698D02*
X9328277Y-10441746D01*
X9328277Y-10441746D02*
X9328277Y-10498889D01*
X9328277Y-10498889D02*
X9318753Y-10517936D01*
X9318753Y-10517936D02*
X9309230Y-10527460D01*
X9309230Y-10527460D02*
X9290182Y-10536984D01*
X9290182Y-10536984D02*
X9261611Y-10536984D01*
X9442563Y-10536984D02*
X9423515Y-10527460D01*
X9423515Y-10527460D02*
X9413992Y-10508412D01*
X9413992Y-10508412D02*
X9413992Y-10336984D01*
X9594944Y-10527460D02*
X9575896Y-10536984D01*
X9575896Y-10536984D02*
X9537801Y-10536984D01*
X9537801Y-10536984D02*
X9518753Y-10527460D01*
X9518753Y-10527460D02*
X9509230Y-10508412D01*
X9509230Y-10508412D02*
X9509230Y-10432222D01*
X9509230Y-10432222D02*
X9518753Y-10413174D01*
X9518753Y-10413174D02*
X9537801Y-10403650D01*
X9537801Y-10403650D02*
X9575896Y-10403650D01*
X9575896Y-10403650D02*
X9594944Y-10413174D01*
X9594944Y-10413174D02*
X9604468Y-10432222D01*
X9604468Y-10432222D02*
X9604468Y-10451270D01*
X9604468Y-10451270D02*
X9509230Y-10470317D01*
X9680658Y-10527460D02*
X9699706Y-10536984D01*
X9699706Y-10536984D02*
X9737801Y-10536984D01*
X9737801Y-10536984D02*
X9756849Y-10527460D01*
X9756849Y-10527460D02*
X9766373Y-10508412D01*
X9766373Y-10508412D02*
X9766373Y-10498889D01*
X9766373Y-10498889D02*
X9756849Y-10479841D01*
X9756849Y-10479841D02*
X9737801Y-10470317D01*
X9737801Y-10470317D02*
X9709230Y-10470317D01*
X9709230Y-10470317D02*
X9690182Y-10460793D01*
X9690182Y-10460793D02*
X9680658Y-10441746D01*
X9680658Y-10441746D02*
X9680658Y-10432222D01*
X9680658Y-10432222D02*
X9690182Y-10413174D01*
X9690182Y-10413174D02*
X9709230Y-10403650D01*
X9709230Y-10403650D02*
X9737801Y-10403650D01*
X9737801Y-10403650D02*
X9756849Y-10413174D01*
X9833039Y-10613174D02*
X9842563Y-10603650D01*
X9842563Y-10603650D02*
X9861611Y-10575079D01*
X9861611Y-10575079D02*
X9871134Y-10556031D01*
X9871134Y-10556031D02*
X9880658Y-10527460D01*
X9880658Y-10527460D02*
X9890182Y-10479841D01*
X9890182Y-10479841D02*
X9890182Y-10441746D01*
X9890182Y-10441746D02*
X9880658Y-10394127D01*
X9880658Y-10394127D02*
X9871134Y-10365555D01*
X9871134Y-10365555D02*
X9861611Y-10346508D01*
X9861611Y-10346508D02*
X9842563Y-10317936D01*
X9842563Y-10317936D02*
X9833039Y-10308412D01*
M02*
